<svg  viewBox="0 0 105 51" fill="none" xmlns="http://www.w3.org/2000/svg">
<g clip-path="url(#clip0_145_6)">
<path d="M99.8586 25.0886C99.7864 24.4231 99.6725 23.7626 99.5176 23.1114L59.3701 23.0763C59.5497 21.528 59.9494 20.0127 60.5568 18.5772C61.3857 16.5949 62.6025 14.7985 64.1357 13.2932C65.6454 11.8329 67.4296 10.6866 69.3854 9.92077C72.5289 8.56614 76.0156 8.22212 79.3631 8.93633C82.7107 9.65055 85.7535 11.388 88.0703 13.9076L94.4101 7.70372C92.1626 5.28053 89.434 3.35303 86.399 2.04465C83.0462 0.634589 79.4366 -0.0613427 75.7999 0.00113705C72.3668 -0.0196878 68.9623 0.627783 65.7766 1.90748C62.7272 3.12637 59.9475 4.93311 57.5958 7.22522C55.2525 9.53827 53.3775 12.2819 52.0739 15.3055C51.0033 17.7711 50.347 20.3969 50.1312 23.0763H49.8696C49.6536 20.3967 48.9962 17.7708 47.924 15.3055C46.6216 12.2813 44.7468 9.53742 42.4025 7.22522C40.0513 4.93244 37.2714 3.12561 34.2217 1.90748C27.5831 -0.684222 20.2045 -0.637344 13.5993 2.03827C10.5647 3.34745 7.83629 5.27484 5.58821 7.69734L11.9293 13.9013C14.3104 11.4789 17.3509 9.80905 20.6728 9.1003C23.9947 8.39154 27.4517 8.67476 30.6141 9.91439C32.5698 10.6797 34.3538 11.8261 35.8626 13.2869C37.3967 14.7916 38.6139 16.5882 39.4428 18.5708C40.0504 20.0062 40.4502 21.5209 40.6295 23.0693L0.481974 23.105C0.327092 23.7562 0.21321 24.4161 0.140962 25.0816C0.0516954 25.8505 0.00793719 26.624 0.0101718 27.3981C-0.00753875 30.4118 0.478369 33.4076 1.44759 36.2613C2.40004 39.0303 3.93378 41.5635 5.94613 43.6908C8.14793 46.022 10.8203 47.8584 13.7859 49.078C17.1018 50.3997 20.6478 51.0482 24.2169 50.9857C27.6492 51.0065 31.0527 50.3586 34.2373 49.078C37.2878 47.8614 40.0679 46.0537 42.4181 43.7597C44.7634 41.4483 46.6387 38.7048 47.94 35.68C48.6069 34.1566 49.1117 32.5668 49.4463 30.9378H50.5845C50.9193 32.5664 51.4232 34.1561 52.0883 35.68C53.3908 38.7042 55.2659 41.4474 57.6102 43.7597C59.9609 46.053 62.7409 47.8606 65.7909 49.078C68.9765 50.3585 72.3811 51.0064 75.8143 50.9857C79.3825 51.0483 82.9274 50.3999 86.2424 49.078C89.2085 47.8593 91.8811 46.0228 94.0821 43.6908C96.0952 41.5636 97.63 39.0304 98.5836 36.2613C99.5525 33.4075 100.038 30.4118 100.021 27.3981C100.011 26.6256 99.9573 25.8548 99.8586 25.0886ZM39.4338 32.416C38.6019 34.4049 37.3719 36.2026 35.8196 37.6987C34.2938 39.1551 32.4997 40.3013 30.5369 41.0737C26.3538 42.6394 21.7497 42.6632 17.5504 41.1413C15.8565 40.4562 14.2982 39.4751 12.9485 38.2435C11.9872 37.3568 11.1908 36.3065 10.5965 35.1416C9.90991 33.815 9.39476 32.4065 9.06373 30.9499H39.9761C39.8219 31.4481 39.6416 31.9379 39.4364 32.4173L39.4338 32.416ZM89.3938 35.1416C88.7993 36.3064 88.0033 37.3567 87.0421 38.2435C85.6925 39.4752 84.1339 40.4563 82.4399 41.1413C78.2406 42.6632 73.6365 42.6394 69.4534 41.0737C67.4905 40.3008 65.6961 39.1546 64.1695 37.6987C62.6173 36.2028 61.3879 34.405 60.5568 32.416C60.3504 31.9354 60.1693 31.4444 60.0145 30.9448H75.5894H90.9279C90.5969 32.4035 90.0818 33.814 89.3951 35.1428L89.3938 35.1416Z" fill="#2F8D46"/>
</g>

<defs>
<clipPath id="clip0_145_6">
<rect width="100" height="50.9923" fill="white"/>
</clipPath>
</defs>
</svg>
