<svg width="395" height="51" viewBox="0 0 395 51" fill="none" xmlns="http://www.w3.org/2000/svg">
<g clip-path="url(#clip0_145_6)">
<path d="M99.8586 25.0886C99.7864 24.4231 99.6725 23.7626 99.5176 23.1114L59.3701 23.0763C59.5497 21.528 59.9494 20.0127 60.5568 18.5772C61.3857 16.5949 62.6025 14.7985 64.1357 13.2932C65.6454 11.8329 67.4296 10.6866 69.3854 9.92077C72.5289 8.56614 76.0156 8.22212 79.3631 8.93633C82.7107 9.65055 85.7534 11.388 88.0703 13.9076L94.4101 7.70372C92.1626 5.28053 89.434 3.35303 86.399 2.04465C83.0462 0.634589 79.4366 -0.0613427 75.7999 0.00113705C72.3668 -0.0196878 68.9623 0.627783 65.7766 1.90748C62.7272 3.12637 59.9475 4.93311 57.5958 7.22522C55.2525 9.53827 53.3775 12.2819 52.0739 15.3055C51.0033 17.7711 50.347 20.3969 50.1312 23.0763H49.8696C49.6536 20.3967 48.9962 17.7708 47.924 15.3055C46.6216 12.2813 44.7468 9.53742 42.4025 7.22522C40.0513 4.93244 37.2715 3.12561 34.2217 1.90748C27.5831 -0.684222 20.2045 -0.637344 13.5993 2.03827C10.5647 3.34745 7.83629 5.27484 5.58821 7.69734L11.9293 13.9013C14.3104 11.4789 17.3509 9.80905 20.6728 9.1003C23.9947 8.39154 27.4517 8.67476 30.6141 9.91439C32.5698 10.6797 34.3538 11.8261 35.8626 13.2869C37.3967 14.7916 38.6139 16.5882 39.4428 18.5708C40.0504 20.0062 40.4502 21.5209 40.6295 23.0693L0.481974 23.105C0.327092 23.7562 0.21321 24.4161 0.140962 25.0816C0.0516954 25.8505 0.00793719 26.624 0.0101718 27.3981C-0.00753875 30.4118 0.478369 33.4076 1.44759 36.2612C2.40004 39.0303 3.93377 41.5635 5.94613 43.6908C8.14793 46.022 10.8203 47.8584 13.7859 49.078C17.1018 50.3997 20.6478 51.0482 24.2169 50.9857C27.6492 51.0065 31.0527 50.3586 34.2373 49.078C37.2878 47.8614 40.0679 46.0537 42.4181 43.7597C44.7634 41.4483 46.6386 38.7048 47.94 35.68C48.6069 34.1566 49.1117 32.5668 49.4463 30.9378H50.5845C50.9193 32.5664 51.4232 34.1561 52.0883 35.68C53.3908 38.7042 55.2659 41.4474 57.6102 43.7597C59.9609 46.053 62.7409 47.8606 65.7909 49.078C68.9765 50.3585 72.3811 51.0064 75.8143 50.9857C79.3825 51.0483 82.9274 50.3999 86.2424 49.078C89.2085 47.8593 91.8811 46.0228 94.0821 43.6908C96.0952 41.5636 97.6301 39.0304 98.5836 36.2612C99.5525 33.4075 100.038 30.4118 100.021 27.3981C100.011 26.6256 99.9573 25.8548 99.8586 25.0886ZM39.4338 32.416C38.6019 34.4049 37.3719 36.2026 35.8196 37.6987C34.2938 39.1551 32.4997 40.3013 30.5369 41.0737C26.3538 42.6394 21.7497 42.6632 17.5504 41.1413C15.8565 40.4562 14.2982 39.4751 12.9485 38.2435C11.9872 37.3568 11.1908 36.3065 10.5965 35.1416C9.90991 33.815 9.39476 32.4065 9.06373 30.9499H39.9762C39.8219 31.4481 39.6416 31.9379 39.4364 32.4173L39.4338 32.416ZM89.3938 35.1416C88.7993 36.3064 88.0033 37.3567 87.0421 38.2435C85.6925 39.4752 84.1339 40.4563 82.4399 41.1413C78.2406 42.6632 73.6365 42.6394 69.4534 41.0737C67.4905 40.3008 65.6961 39.1546 64.1695 37.6987C62.6173 36.2028 61.3879 34.405 60.5568 32.416C60.3504 31.9354 60.1693 31.4444 60.0145 30.9448H75.5894H90.9279C90.5969 32.4035 90.0818 33.814 89.3951 35.1428L89.3938 35.1416Z" fill="#2F8D46"/>
</g>
<path d="M134.636 20.2812C134.457 19.6591 134.206 19.1094 133.882 18.6321C133.558 18.1463 133.162 17.7372 132.693 17.4048C132.233 17.0639 131.705 16.804 131.108 16.625C130.52 16.446 129.868 16.3565 129.152 16.3565C127.814 16.3565 126.638 16.6889 125.624 17.3537C124.618 18.0185 123.834 18.9858 123.271 20.2557C122.709 21.517 122.428 23.0597 122.428 24.8835C122.428 26.7074 122.705 28.2585 123.259 29.5369C123.813 30.8153 124.597 31.7912 125.611 32.4645C126.625 33.1293 127.822 33.4616 129.203 33.4616C130.456 33.4616 131.526 33.2401 132.412 32.7969C133.307 32.3452 133.989 31.7102 134.457 30.892C134.935 30.0739 135.173 29.1065 135.173 27.9901L136.298 28.1562H129.548V23.9886H140.504V27.2869C140.504 29.5881 140.018 31.5653 139.047 33.2188C138.075 34.8636 136.737 36.1335 135.033 37.0284C133.328 37.9148 131.376 38.358 129.178 38.358C126.723 38.358 124.567 37.8168 122.709 36.7344C120.851 35.6435 119.402 34.0966 118.362 32.0938C117.331 30.0824 116.815 27.696 116.815 24.9347C116.815 22.8125 117.122 20.9205 117.736 19.2585C118.358 17.5881 119.227 16.1733 120.344 15.0142C121.46 13.8551 122.76 12.973 124.243 12.3679C125.726 11.7628 127.332 11.4602 129.062 11.4602C130.545 11.4602 131.926 11.6776 133.205 12.1122C134.483 12.5384 135.616 13.1435 136.605 13.9276C137.602 14.7116 138.416 15.6449 139.047 16.7273C139.678 17.8011 140.082 18.9858 140.261 20.2812H134.636ZM153.509 38.3835C151.489 38.3835 149.75 37.9744 148.293 37.1562C146.844 36.3295 145.728 35.1619 144.944 33.6534C144.159 32.1364 143.767 30.3423 143.767 28.2713C143.767 26.2514 144.159 24.4787 144.944 22.9531C145.728 21.4276 146.831 20.2386 148.255 19.3864C149.686 18.5341 151.365 18.108 153.292 18.108C154.587 18.108 155.793 18.3168 156.909 18.7344C158.034 19.1435 159.015 19.7614 159.85 20.5881C160.694 21.4148 161.35 22.4545 161.819 23.7074C162.287 24.9517 162.522 26.4091 162.522 28.0795V29.5753H145.941V26.2003H157.395C157.395 25.4162 157.225 24.7216 156.884 24.1165C156.543 23.5114 156.07 23.0384 155.465 22.6974C154.868 22.348 154.174 22.1733 153.381 22.1733C152.554 22.1733 151.821 22.3651 151.182 22.7486C150.551 23.1236 150.057 23.6307 149.699 24.2699C149.341 24.9006 149.158 25.6037 149.15 26.3793V29.5881C149.15 30.5597 149.328 31.3991 149.686 32.1065C150.053 32.8139 150.569 33.3594 151.233 33.7429C151.898 34.1264 152.686 34.3182 153.598 34.3182C154.203 34.3182 154.757 34.233 155.26 34.0625C155.763 33.892 156.194 33.6364 156.551 33.2955C156.909 32.9545 157.182 32.5369 157.37 32.0426L162.407 32.375C162.151 33.5852 161.627 34.642 160.834 35.5455C160.05 36.4403 159.036 37.1392 157.792 37.642C156.556 38.1364 155.128 38.3835 153.509 38.3835ZM175.025 38.3835C173.005 38.3835 171.266 37.9744 169.809 37.1562C168.36 36.3295 167.243 35.1619 166.459 33.6534C165.675 32.1364 165.283 30.3423 165.283 28.2713C165.283 26.2514 165.675 24.4787 166.459 22.9531C167.243 21.4276 168.347 20.2386 169.77 19.3864C171.202 18.5341 172.881 18.108 174.807 18.108C176.103 18.108 177.309 18.3168 178.425 18.7344C179.55 19.1435 180.53 19.7614 181.365 20.5881C182.209 21.4148 182.865 22.4545 183.334 23.7074C183.803 24.9517 184.037 26.4091 184.037 28.0795V29.5753H167.456V26.2003H178.911C178.911 25.4162 178.74 24.7216 178.4 24.1165C178.059 23.5114 177.586 23.0384 176.98 22.6974C176.384 22.348 175.689 22.1733 174.897 22.1733C174.07 22.1733 173.337 22.3651 172.698 22.7486C172.067 23.1236 171.573 23.6307 171.215 24.2699C170.857 24.9006 170.674 25.6037 170.665 26.3793V29.5881C170.665 30.5597 170.844 31.3991 171.202 32.1065C171.569 32.8139 172.084 33.3594 172.749 33.7429C173.414 34.1264 174.202 34.3182 175.114 34.3182C175.719 34.3182 176.273 34.233 176.776 34.0625C177.279 33.892 177.709 33.6364 178.067 33.2955C178.425 32.9545 178.698 32.5369 178.885 32.0426L183.922 32.375C183.667 33.5852 183.142 34.642 182.35 35.5455C181.566 36.4403 180.551 37.1392 179.307 37.642C178.071 38.1364 176.644 38.3835 175.025 38.3835ZM192.526 32.3494L192.539 25.8168H193.331L199.621 18.3636H205.873L197.422 28.233H196.131L192.526 32.3494ZM187.591 38V11.8182H193.037V38H187.591ZM199.864 38L194.086 29.4474L197.716 25.5994L206.243 38H199.864ZM224.882 23.9631L219.897 24.2699C219.811 23.8437 219.628 23.4602 219.347 23.1193C219.066 22.7699 218.695 22.4929 218.235 22.2884C217.783 22.0753 217.242 21.9688 216.611 21.9688C215.767 21.9688 215.056 22.1477 214.476 22.5057C213.897 22.8551 213.607 23.3239 213.607 23.9119C213.607 24.3807 213.794 24.777 214.169 25.1009C214.544 25.4247 215.188 25.6847 216.1 25.8807L219.654 26.5966C221.563 26.9886 222.986 27.6193 223.924 28.4886C224.861 29.358 225.33 30.5 225.33 31.9148C225.33 33.2017 224.951 34.331 224.192 35.3026C223.442 36.2741 222.411 37.0327 221.098 37.5781C219.794 38.1151 218.29 38.3835 216.586 38.3835C213.986 38.3835 211.915 37.8423 210.373 36.7599C208.838 35.669 207.939 34.1861 207.675 32.3111L213.032 32.0298C213.194 32.8224 213.586 33.4276 214.208 33.8452C214.83 34.2543 215.627 34.4588 216.598 34.4588C217.553 34.4588 218.32 34.2756 218.9 33.9091C219.488 33.5341 219.786 33.0526 219.794 32.4645C219.786 31.9702 219.577 31.5653 219.168 31.25C218.759 30.9261 218.128 30.679 217.276 30.5085L213.875 29.831C211.958 29.4474 210.53 28.7827 209.593 27.8366C208.664 26.8906 208.199 25.6847 208.199 24.2188C208.199 22.9574 208.54 21.8707 209.222 20.9588C209.912 20.0469 210.88 19.3438 212.124 18.8494C213.377 18.3551 214.843 18.108 216.522 18.108C219.002 18.108 220.953 18.6321 222.377 19.6804C223.809 20.7287 224.644 22.1562 224.882 23.9631ZM228.862 38V11.8182H246.197V16.3821H234.397V22.6207H245.046V27.1847H234.397V38H228.862ZM257.249 38.3835C255.263 38.3835 253.545 37.9616 252.097 37.1179C250.656 36.2656 249.544 35.081 248.76 33.5639C247.976 32.0384 247.584 30.2699 247.584 28.2585C247.584 26.2301 247.976 24.4574 248.76 22.9403C249.544 21.4148 250.656 20.2301 252.097 19.3864C253.545 18.5341 255.263 18.108 257.249 18.108C259.234 18.108 260.947 18.5341 262.388 19.3864C263.837 20.2301 264.953 21.4148 265.737 22.9403C266.521 24.4574 266.913 26.2301 266.913 28.2585C266.913 30.2699 266.521 32.0384 265.737 33.5639C264.953 35.081 263.837 36.2656 262.388 37.1179C260.947 37.9616 259.234 38.3835 257.249 38.3835ZM257.274 34.1648C258.178 34.1648 258.932 33.9091 259.537 33.3977C260.142 32.8778 260.598 32.1705 260.905 31.2756C261.22 30.3807 261.378 29.3622 261.378 28.2202C261.378 27.0781 261.22 26.0597 260.905 25.1648C260.598 24.2699 260.142 23.5625 259.537 23.0426C258.932 22.5227 258.178 22.2628 257.274 22.2628C256.362 22.2628 255.595 22.5227 254.973 23.0426C254.359 23.5625 253.895 24.2699 253.58 25.1648C253.273 26.0597 253.119 27.0781 253.119 28.2202C253.119 29.3622 253.273 30.3807 253.58 31.2756C253.895 32.1705 254.359 32.8778 254.973 33.3977C255.595 33.9091 256.362 34.1648 257.274 34.1648ZM270.455 38V18.3636H275.734V21.7898H275.939C276.297 20.571 276.898 19.6506 277.741 19.0284C278.585 18.3977 279.557 18.0824 280.656 18.0824C280.929 18.0824 281.223 18.0994 281.538 18.1335C281.854 18.1676 282.131 18.2145 282.369 18.2741V23.1065C282.114 23.0298 281.76 22.9616 281.308 22.902C280.857 22.8423 280.443 22.8125 280.068 22.8125C279.267 22.8125 278.551 22.9872 277.92 23.3366C277.298 23.6776 276.804 24.1548 276.438 24.7685C276.08 25.3821 275.901 26.0895 275.901 26.8906V38H270.455ZM302.648 20.2812C302.469 19.6591 302.218 19.1094 301.894 18.6321C301.57 18.1463 301.174 17.7372 300.705 17.4048C300.245 17.0639 299.716 16.804 299.12 16.625C298.532 16.446 297.88 16.3565 297.164 16.3565C295.826 16.3565 294.65 16.6889 293.635 17.3537C292.63 18.0185 291.846 18.9858 291.283 20.2557C290.721 21.517 290.439 23.0597 290.439 24.8835C290.439 26.7074 290.716 28.2585 291.27 29.5369C291.824 30.8153 292.608 31.7912 293.623 32.4645C294.637 33.1293 295.834 33.4616 297.215 33.4616C298.468 33.4616 299.537 33.2401 300.424 32.7969C301.319 32.3452 302 31.7102 302.469 30.892C302.946 30.0739 303.185 29.1065 303.185 27.9901L304.31 28.1562H297.56V23.9886H308.516V27.2869C308.516 29.5881 308.03 31.5653 307.059 33.2188C306.087 34.8636 304.749 36.1335 303.044 37.0284C301.34 37.9148 299.388 38.358 297.189 38.358C294.735 38.358 292.578 37.8168 290.721 36.7344C288.863 35.6435 287.414 34.0966 286.374 32.0938C285.343 30.0824 284.827 27.696 284.827 24.9347C284.827 22.8125 285.134 20.9205 285.748 19.2585C286.37 17.5881 287.239 16.1733 288.355 15.0142C289.472 13.8551 290.772 12.973 292.255 12.3679C293.738 11.7628 295.344 11.4602 297.074 11.4602C298.557 11.4602 299.938 11.6776 301.216 12.1122C302.495 12.5384 303.628 13.1435 304.617 13.9276C305.614 14.7116 306.428 15.6449 307.059 16.7273C307.689 17.8011 308.094 18.9858 308.273 20.2812H302.648ZM321.521 38.3835C319.501 38.3835 317.762 37.9744 316.305 37.1562C314.856 36.3295 313.739 35.1619 312.955 33.6534C312.171 32.1364 311.779 30.3423 311.779 28.2713C311.779 26.2514 312.171 24.4787 312.955 22.9531C313.739 21.4276 314.843 20.2386 316.266 19.3864C317.698 18.5341 319.377 18.108 321.303 18.108C322.599 18.108 323.805 18.3168 324.921 18.7344C326.046 19.1435 327.026 19.7614 327.862 20.5881C328.705 21.4148 329.362 22.4545 329.83 23.7074C330.299 24.9517 330.533 26.4091 330.533 28.0795V29.5753H313.952V26.2003H325.407C325.407 25.4162 325.237 24.7216 324.896 24.1165C324.555 23.5114 324.082 23.0384 323.477 22.6974C322.88 22.348 322.185 22.1733 321.393 22.1733C320.566 22.1733 319.833 22.3651 319.194 22.7486C318.563 23.1236 318.069 23.6307 317.711 24.2699C317.353 24.9006 317.17 25.6037 317.161 26.3793V29.5881C317.161 30.5597 317.34 31.3991 317.698 32.1065C318.065 32.8139 318.58 33.3594 319.245 33.7429C319.91 34.1264 320.698 34.3182 321.61 34.3182C322.215 34.3182 322.769 34.233 323.272 34.0625C323.775 33.892 324.205 33.6364 324.563 33.2955C324.921 32.9545 325.194 32.5369 325.381 32.0426L330.418 32.375C330.163 33.5852 329.638 34.642 328.846 35.5455C328.062 36.4403 327.048 37.1392 325.803 37.642C324.567 38.1364 323.14 38.3835 321.521 38.3835ZM343.036 38.3835C341.016 38.3835 339.278 37.9744 337.82 37.1562C336.371 36.3295 335.255 35.1619 334.471 33.6534C333.687 32.1364 333.295 30.3423 333.295 28.2713C333.295 26.2514 333.687 24.4787 334.471 22.9531C335.255 21.4276 336.359 20.2386 337.782 19.3864C339.214 18.5341 340.893 18.108 342.819 18.108C344.114 18.108 345.32 18.3168 346.437 18.7344C347.562 19.1435 348.542 19.7614 349.377 20.5881C350.221 21.4148 350.877 22.4545 351.346 23.7074C351.815 24.9517 352.049 26.4091 352.049 28.0795V29.5753H335.468V26.2003H346.923C346.923 25.4162 346.752 24.7216 346.411 24.1165C346.07 23.5114 345.597 23.0384 344.992 22.6974C344.396 22.348 343.701 22.1733 342.908 22.1733C342.082 22.1733 341.349 22.3651 340.71 22.7486C340.079 23.1236 339.585 23.6307 339.227 24.2699C338.869 24.9006 338.685 25.6037 338.677 26.3793V29.5881C338.677 30.5597 338.856 31.3991 339.214 32.1065C339.58 32.8139 340.096 33.3594 340.761 33.7429C341.425 34.1264 342.214 34.3182 343.126 34.3182C343.731 34.3182 344.285 34.233 344.788 34.0625C345.29 33.892 345.721 33.6364 346.079 33.2955C346.437 32.9545 346.71 32.5369 346.897 32.0426L351.934 32.375C351.678 33.5852 351.154 34.642 350.362 35.5455C349.577 36.4403 348.563 37.1392 347.319 37.642C346.083 38.1364 344.656 38.3835 343.036 38.3835ZM360.538 32.3494L360.55 25.8168H361.343L367.633 18.3636H373.884L365.434 28.233H364.143L360.538 32.3494ZM355.603 38V11.8182H361.049V38H355.603ZM367.876 38L362.097 29.4474L365.728 25.5994L374.255 38H367.876ZM392.894 23.9631L387.908 24.2699C387.823 23.8437 387.64 23.4602 387.359 23.1193C387.077 22.7699 386.707 22.4929 386.246 22.2884C385.795 22.0753 385.254 21.9688 384.623 21.9688C383.779 21.9688 383.067 22.1477 382.488 22.5057C381.908 22.8551 381.619 23.3239 381.619 23.9119C381.619 24.3807 381.806 24.777 382.181 25.1009C382.556 25.4247 383.2 25.6847 384.112 25.8807L387.665 26.5966C389.575 26.9886 390.998 27.6193 391.935 28.4886C392.873 29.358 393.342 30.5 393.342 31.9148C393.342 33.2017 392.962 34.331 392.204 35.3026C391.454 36.2741 390.423 37.0327 389.11 37.5781C387.806 38.1151 386.302 38.3835 384.597 38.3835C381.998 38.3835 379.927 37.8423 378.384 36.7599C376.85 35.669 375.951 34.1861 375.687 32.3111L381.043 32.0298C381.205 32.8224 381.597 33.4276 382.219 33.8452C382.842 34.2543 383.638 34.4588 384.61 34.4588C385.565 34.4588 386.332 34.2756 386.911 33.9091C387.499 33.5341 387.798 33.0526 387.806 32.4645C387.798 31.9702 387.589 31.5653 387.18 31.25C386.771 30.9261 386.14 30.679 385.288 30.5085L381.887 29.831C379.969 29.4474 378.542 28.7827 377.604 27.8366C376.675 26.8906 376.211 25.6847 376.211 24.2188C376.211 22.9574 376.552 21.8707 377.234 20.9588C377.924 20.0469 378.891 19.3438 380.136 18.8494C381.388 18.3551 382.854 18.108 384.533 18.108C387.013 18.108 388.965 18.6321 390.388 19.6804C391.82 20.7287 392.656 22.1562 392.894 23.9631Z" fill="white" fill-opacity="0.7"/>
<defs>
<clipPath id="clip0_145_6">
<rect width="100" height="50.9923" fill="white"/>
</clipPath>
</defs>
</svg>
