<svg width="250" height="88" viewBox="0 0 250 88" fill="none" xmlns="http://www.w3.org/2000/svg">
<g id="sbi_logo">
<g id="layer1">
<g id="g9996">
<path id="path2868" d="M147.525 44.2367C143.003 40.4878 137.149 38.0673 131.986 35.9309C124.867 32.9867 118.716 30.4464 118.716 25.7349C118.716 23.6774 119.679 21.7872 121.43 20.4239C123.276 18.9849 125.855 18.1928 128.685 18.1928C137.587 18.1928 144.688 24.4884 144.751 24.5452L146.487 26.1294L154.376 11.3323L153.473 10.3793C153.129 10.0134 144.82 1.43604 128.792 1.43604C121.102 1.43604 114.03 3.89426 108.871 8.35644C103.635 12.8848 100.745 19.1363 100.745 25.9558C100.745 32.6048 103.326 37.9822 108.624 42.3908C113.08 46.0924 118.631 48.4843 124.002 50.8006C131.327 53.9564 137.66 56.686 137.66 61.5426C137.66 65.2411 135.154 69.1953 128.133 69.1953C118.063 69.1953 109.981 61.5269 109.902 61.448L108.388 59.9774L98.5797 73.569L99.558 74.6641C99.6685 74.7777 102.203 77.5768 106.964 80.3633C111.332 82.9131 118.514 85.9552 127.909 85.9552C136.129 85.9552 143.135 83.4338 148.172 78.6687C152.908 74.1813 155.515 67.9835 155.515 61.2145C155.515 54.2498 152.902 48.6957 147.525 44.2367Z" fill="#FEFEFE"/>
<path id="path2870" d="M230.438 84.7341H248.816V2.65723H230.438V84.7341Z" fill="white"/>
<path id="path2874" d="M194.513 69.3626H180.524V18.0225H192.86C198.388 18.0225 201.56 21.1151 201.56 26.5051C201.56 31.9518 198.707 34.7098 193.077 34.7098H188.83V49.8162H194.513C197.622 49.8162 200.212 50.785 202.002 52.6279C203.882 54.5592 204.646 56.4715 204.646 59.2265C204.646 65.481 200.765 69.3626 194.513 69.3626ZM218.916 47.847C217.099 44.9879 214.606 42.7157 211.639 41.1948C216.426 37.3574 219.134 31.4657 219.134 24.7378C219.134 17.9341 216.543 12.2602 211.639 8.31874C207.019 4.61074 200.604 2.64795 193.077 2.64795H163.174V84.7245H193.412C201.434 84.7245 208.373 82.6985 213.476 78.8581C219.27 74.5031 222.328 68.0214 222.328 60.1069C222.328 55.5974 221.15 51.3561 218.916 47.847Z" fill="white"/>
<path id="path2878" d="M43.615 1.18359C20.1807 1.18359 1.1834 20.225 1.1834 43.713C1.1834 65.7335 17.8802 83.8441 39.2727 86.0216V55.1272C34.6749 53.3727 31.3993 48.9199 31.3993 43.713C31.3993 36.9756 36.8775 31.4941 43.615 31.4941C50.3492 31.4941 55.8339 36.9756 55.8339 43.713C55.8339 48.9199 52.5519 53.3727 47.9541 55.1272V86.0216C69.3497 83.8441 86.0466 65.7335 86.0466 43.713C86.0466 20.225 67.0492 1.18359 43.615 1.18359Z" fill="#06C0FC"/>
</g>
</g>
</g>
</svg>
