<svg width="534" height="96" viewBox="0 0 534 96" fill="none" xmlns="http://www.w3.org/2000/svg">
<path d="M426.386 57.768L419.858 47.304V44.472H442.706C444.53 44.472 445.97 43.032 445.97 41.208V28.728C445.97 26.952 444.53 25.464 442.706 25.464H426.386V37.944H419.858V18.936H442.706C448.13 18.936 452.498 23.352 452.498 28.728V41.208C452.498 46.632 448.13 51 442.706 51H426.386V57.768ZM481.531 51H468.523C463.099 51 458.731 46.632 458.731 41.256V18.984H465.259V41.256C465.259 43.032 466.699 44.52 468.523 44.52H481.531C483.307 44.52 484.795 43.032 484.795 41.256V18.984H491.323V41.256C491.323 46.632 486.907 51 481.531 51ZM520.5 51H497.556V31.752H518.34C520.068 31.752 521.46 30.36 521.46 28.632C521.46 26.904 520.068 25.512 518.34 25.512H504.084V29.496L497.556 18.984H518.34C523.62 18.984 527.94 23.352 527.94 28.632C527.94 30.408 527.46 32.184 526.452 33.816C528.756 35.64 530.148 38.424 530.148 41.4C530.148 46.68 525.828 51 520.5 51ZM520.5 44.52C522.228 44.52 523.62 43.08 523.62 41.4C523.62 39.672 522.228 38.28 520.5 38.28H504.084V44.52H520.5Z" fill="white"/>
<path d="M112.407 57.816L105.879 47.304V25.512H96.9032L92.8712 18.984H125.463L121.383 25.512H112.407V57.816ZM162.87 57.816L156.342 47.304V38.28H136.806V51H130.278V18.984H136.806V31.752H156.342V18.984H162.87V57.816ZM201.695 57.816L197.471 51H169.103V18.984H201.695V25.512H175.631V31.752H195.167V38.28H175.631V44.52H201.695V57.816Z" fill="white"/>
<path d="M235.011 57.816L228.483 47.304V25.512H219.507L215.475 18.984H248.067L243.987 25.512H235.011V57.816ZM285.474 57.816L278.946 47.304V38.28H259.41V51H252.882V18.984H259.41V31.752H278.946V18.984H285.474V57.816ZM325.403 57.816H317.723L305.483 38.28H298.235V51H291.707V31.752H314.747C316.475 31.752 317.867 30.36 317.867 28.632C317.867 26.952 316.475 25.512 314.747 25.512H298.235V29.496L291.707 19.032H314.747C320.075 19.032 324.443 23.352 324.443 28.632C324.443 33.96 320.075 38.28 314.747 38.28H313.211L325.403 57.816ZM363.265 57.816L359.041 51H330.673V18.984H363.265V25.512H337.201V31.752H356.737V38.28H337.201V44.52H363.265V57.816ZM402.091 57.816L397.867 51H369.499V18.984H402.091V25.512H376.027V31.752H395.563V38.28H376.027V44.52H402.091V57.816Z" fill="white"/>
<path d="M229.752 84.408L226.488 79.152V77.76H231.384C232.272 77.76 232.992 77.016 232.992 76.128V68.256H229.752V64.992H236.256V76.128C236.256 78.816 234.072 81 231.384 81H229.752V84.408ZM257.407 81H253.567L247.447 71.16L243.343 77.736H247.183L245.143 81H237.463L247.447 64.992L257.407 81ZM263.529 84.408L260.265 79.176V74.28L251.361 61.608H255.345L261.897 70.944L266.049 64.992H270.033L263.529 74.28V84.408ZM282.406 81L272.398 64.992H283.798L280.51 70.248V68.256H278.278L282.406 74.832L288.55 64.992H292.39L282.406 81ZM306.576 81H302.736L296.616 71.16L292.512 77.736H296.352L294.312 81H286.632L296.616 64.992L306.576 81ZM326.08 84.408H322.24L316.12 74.64H312.496V81H309.232V71.376H320.752C321.616 71.376 322.312 70.68 322.312 69.816C322.312 68.976 321.616 68.256 320.752 68.256H312.496V70.248L309.232 65.016H320.752C323.416 65.016 325.6 67.176 325.6 69.816C325.6 72.48 323.416 74.64 320.752 74.64H319.984L326.08 84.408ZM331.979 84.384L328.715 79.152V77.736H340.139C341.051 77.736 341.771 77.016 341.771 76.104V69.864C341.771 68.976 341.051 68.232 340.139 68.232H331.979V74.472H328.715V64.968H340.139C342.851 64.968 345.035 67.176 345.035 69.864V76.104C345.035 78.816 342.851 81 340.139 81H331.979V84.384ZM364.447 84.408L361.183 79.152V74.64H351.415V81H348.151V64.992H351.415V71.376H361.183V64.992H364.447V84.408ZM387.039 81H383.199L377.079 71.16L372.975 77.736H376.815L374.775 81H367.095L377.079 64.992L387.039 81ZM404.504 84.408L392.96 72.864V81H389.696V64.992L401.24 76.536V64.992H404.504V84.408Z" fill="white"/>
<path d="M447.8 83H443.96L437.84 73.16L433.736 79.736H437.576L435.536 83H427.856L437.84 66.992L447.8 83ZM467.304 86.408H463.464L457.344 76.64H453.72V83H450.456V73.376H461.976C462.84 73.376 463.536 72.68 463.536 71.816C463.536 70.976 462.84 70.256 461.976 70.256H453.72V72.248L450.456 67.016H461.976C464.64 67.016 466.824 69.176 466.824 71.816C466.824 74.48 464.64 76.64 461.976 76.64H461.208L467.304 86.408ZM477.975 86.408L474.711 81.176V76.28L465.807 63.608H469.791L476.343 72.944L480.495 66.992H484.479L477.975 76.28V86.408ZM500.671 83H496.831L490.711 73.16L486.607 79.736H490.447L488.407 83H480.727L490.711 66.992L500.671 83ZM518.136 86.408L506.592 74.864V83H503.328V66.992L514.872 78.536V66.992H518.136V86.408Z" fill="white"/>
<path d="M128.14 84.408H124.276L118.18 74.64H114.964V81H111.7V65.016H114.964V71.376H118.108L123.7 65.016H128.068L121.012 73.008L128.14 84.408ZM141.927 81H135.423C132.711 81 130.527 78.816 130.527 76.128V64.992H133.791V76.128C133.791 77.016 134.511 77.76 135.423 77.76H141.927C142.815 77.76 143.559 77.016 143.559 76.128V64.992H146.823V76.128C146.823 78.816 144.615 81 141.927 81ZM164.748 84.408L153.204 72.864V81H149.94V64.992L161.484 76.536V64.992H164.748V84.408ZM187.351 81H183.511L177.391 71.16L173.287 77.736H177.127L175.087 81H167.407L177.391 64.992L187.351 81ZM206.303 84.408L204.191 81H190.007V64.992H193.271V77.76H206.303V84.408Z" fill="white"/>
<path d="M12.3897 70.7121L7.4937 62.8281V60.7401H14.8377C16.1697 60.7401 17.2497 59.6241 17.2497 58.2921V46.4841H12.3897V41.5881H22.1457V58.2921C22.1457 62.3241 18.8697 65.6001 14.8377 65.6001H12.3897V70.7121ZM53.8727 65.6001H48.1127L38.9327 50.8401L32.7767 60.7041H38.5367L35.4767 65.6001H23.9567L38.9327 41.5881L53.8727 65.6001ZM82.5171 70.7121H76.7211L67.5771 56.0601H62.7531V65.6001H57.8571V41.6241H62.7531V51.1641H67.4691L75.8571 41.6241H82.4091L71.8251 53.6121L82.5171 70.7121Z" fill="white"/>
<circle cx="45" cy="51" r="41.85" stroke="white" stroke-width="6.3"/>
</svg>
