<svg id="Tsecond_Logo" data-name="Tsecond Logo" xmlns="http://www.w3.org/2000/svg" xmlns:xlink="http://www.w3.org/1999/xlink" width="211.16" height="67.025" viewBox="0 0 211.16 67.025">
  <defs>
    <linearGradient id="linear-gradient" y1="0.5" x2="1" y2="0.5" gradientUnits="objectBoundingBox">
      <stop offset="0" stop-color="#b800d0"/>
      <stop offset="1" stop-color="#008dff"/>
    </linearGradient>
  </defs>
  <g id="Layer_1" data-name="Layer 1">
    <path id="Path_67" data-name="Path 67" d="M152.3,20.576V46.449a8.339,8.339,0,0,1-2.751,6.7Q146.8,55.5,141.337,55.5q-5.5,0-8.245-2.358a8.458,8.458,0,0,1-2.782-6.7V20.576a8.35,8.35,0,0,1,2.743-6.7q2.743-2.358,8.221-2.358,5.454,0,8.245,2.358A8.261,8.261,0,0,1,152.3,20.576Zm-4.543,25.873V20.576q0-5.179-6.468-5.179t-6.468,5.179V46.449q0,5.179,6.468,5.172T147.758,46.449ZM26.384,12.489v3.883H15.46V54.537H10.933V16.371H0V12.489ZM64.07,46.449q0,9.054-10.933,9.054T42.205,46.449v-5.5h4.527v5.761A4.393,4.393,0,0,0,48.351,50.3a7.525,7.525,0,0,0,4.786,1.289A7.525,7.525,0,0,0,57.924,50.3a4.283,4.283,0,0,0,1.619-3.529,10.61,10.61,0,0,0-.487-3.545,8.072,8.072,0,0,0-1.973-2.814L45.695,29.308a11.711,11.711,0,0,1-2.743-3.93,13.228,13.228,0,0,1-.747-4.818,8.433,8.433,0,0,1,2.688-6.7c1.784-1.572,4.5-2.358,8.111-2.358q10.422,0,10.422,9.054v5.5H58.891V20.317a4.5,4.5,0,0,0-1.517-3.623,6.887,6.887,0,0,0-4.558-1.3,6.92,6.92,0,0,0-4.566,1.3,4.456,4.456,0,0,0-1.517,3.56,10.94,10.94,0,0,0,.424,3.552,7.018,7.018,0,0,0,2,2.719L60.769,37.655a12.575,12.575,0,0,1,2.586,4,13.809,13.809,0,0,1,.715,4.794Zm24.624,0v-3.56h4.527v3.56a8.5,8.5,0,0,1-2.649,6.7Q87.924,55.5,82.611,55.5t-8.017-2.358a8.419,8.419,0,0,1-2.719-6.7V20.576a8.483,8.483,0,0,1,2.656-6.7q2.656-2.358,7.954-2.358T90.5,13.88a8.419,8.419,0,0,1,2.719,6.7V34.81H76.4v11.64q0,5.179,6.146,5.172T88.694,46.449ZM76.4,20.576V30.927H88.694V20.576q0-5.179-6.146-5.179T76.4,20.576Zm41.341,25.873v-3.56h4.527v3.56a8.5,8.5,0,0,1-2.649,6.7q-2.649,2.358-7.962,2.358t-8.017-2.358a8.419,8.419,0,0,1-2.719-6.7V20.576a8.5,8.5,0,0,1,2.649-6.7q2.649-2.358,7.962-2.358t8.017,2.358a8.419,8.419,0,0,1,2.719,6.7v6.146h-4.527V20.576q0-5.179-6.146-5.179t-6.146,5.179V46.449q0,5.179,6.146,5.172T117.743,46.449Zm83.137,8.087H190.466V12.489H200.88q5.046,0,7.663,2.4a8.574,8.574,0,0,1,2.617,6.657v23.94a8.578,8.578,0,0,1-2.586,6.688Q205.981,54.529,200.88,54.537Zm5.753-9.054V21.543a4.9,4.9,0,0,0-1.5-3.812,6.115,6.115,0,0,0-4.268-1.36h-5.871V50.654h5.887Q206.633,50.654,206.633,45.483ZM164.86,54.537V20.576q0-5.179,6.468-5.179t6.476,5.179V54.537h4.535V20.576a8.293,8.293,0,0,0-2.782-6.7q-2.782-2.358-8.252-2.358-5.454,0-8.213,2.358a8.327,8.327,0,0,0-2.759,6.7V54.537ZM34.094,0h-.786L32.7,67.025h2.036Z" fill="url(#linear-gradient)"/>
  </g>
</svg>
