<svg width="305" height="305" viewBox="0 0 305 305" fill="none" xmlns="http://www.w3.org/2000/svg">
    <g filter="url(#filter0_dii_13_167)">
        <path
            d="M128.143 233.409C129.935 222.072 131.63 211.277 133.36 200.487C135.751 185.58 138.32 170.702 140.478 155.761C141.06 151.751 142.664 150.533 146.591 150.668C153.874 150.922 161.175 150.741 169.018 150.741C166.055 168.756 163.23 185.936 160.404 203.11C160.147 204.655 159.862 206.201 159.634 207.752C157.196 224.672 147.185 233.138 128.143 233.409Z"
            fill="url(#paint0_linear_13_167)" />
        <path
            d="M74.4977 249.625C74.4806 249.631 74.4634 249.631 74.452 249.62C40.5349 221.43 23.3366 185.384 27.7603 141.442C32.9546 89.8684 61.5461 54.3525 110.493 35.7682C152.053 19.9871 204.247 30.5398 235.213 59.829C235.213 59.8347 235.207 59.8403 235.207 59.846C234.899 60.7371 233.078 61.2955 232.136 61.1545C230.766 60.9514 228.512 59.5922 226.765 58.2836C208.945 44.9391 189.086 36.8116 166.871 33.9464C113.192 27.0147 59.3486 58.6785 39.9184 108.847C21.3901 156.693 34.2275 208.661 72.9679 242.575C73.8869 243.37 74.8002 244.228 75.5708 245.192C76.7409 246.659 76.2044 248.824 74.4977 249.625Z"
            fill="url(#paint1_linear_13_167)" />
        <g filter="url(#filter1_d_13_167)">
            <path
                d="M120.889 268.039C168.562 278.039 210.202 267.447 242.755 231.085C275.354 194.672 280.474 152.456 264.731 107.098L264.748 107.086C265.833 106.551 267.288 106.579 268.15 107.149C268.401 107.312 268.818 107.425 269.943 110.025C270.011 110.183 270.268 110.82 270.325 110.978C282.466 146.054 280.131 180.273 261.843 212.614C234.564 260.837 180.697 284.542 125.963 273.313C123.497 272.805 119.034 272.348 120.889 268.039Z"
                fill="url(#paint2_linear_13_167)">
            </path>
        </g>
    </g>
    <defs>
        <linearGradient id="paint0_linear_13_167" x1="149" y1="151" x2="148.58" y2="233.409"
            gradientUnits="userSpaceOnUse">
            <stop offset="0.148" stop-color="#0FF0FC" />
            <stop offset="1" stop-color="#80E961" />
            <animate attributeName="y1" dur="3200ms" from="233.409" to="151" fill="freeze" />
        </linearGradient>
        <linearGradient id="paint1_linear_13_167" x1="130.999" y1="28" x2="131.145" y2="249.629"
            gradientUnits="userSpaceOnUse">
            <stop offset="0.148" stop-color="#0FF0FC" />
            <stop offset="1" stop-color="#80E961" />
            <animate attributeName="y1" dur="3200ms" from="249.629" to="28" fill="freeze" />
        </linearGradient>
        <linearGradient id="paint2_linear_13_167" x1="198.999" y1="97.5" x2="199.153" y2="276.065"
            gradientUnits="userSpaceOnUse">
            <stop offset="0.148" stop-color="#0FF0FC" />
            <stop offset="1" stop-color="#80E961" />
            <animate attributeName="y1" dur="3200ms" from="276.065" to="97.5" fill="freeze" />
        </linearGradient>
    </defs>
</svg>